# xmcd
#
# Track frame offsets: 
#        150
#        20805
#        41105
#        59532
#        81307
#        104357
#        125304
#        144407
#        166572
#        186765
#        207182
#        226677
#        247087
#
# Disc length: 3612 seconds
#
# Revision: 11
# Processed by: cddbd v1.5.2PL0 Copyright (c) Steve Scherf et al.
# Submitted via: ExactAudioCopyFreeDBPlugin 1.0
#
DISCID=af0e1a0d
DTITLE=ポルノグラフィティ - Romantist Egoist
DYEAR=2000
DGENRE=Japanese Rock
TTITLE0=Jazz up
TTITLE1=Century Lovers
TTITLE2=ヒトリノ夜
TTITLE3=ライオン
TTITLE4=憂色 -Love is you-
TTITLE5=Heart Beat
TTITLE6=マシンガントーク
TTITLE7=デッサン#1
TTITLE8=アポロ (New Apollo Project Version)
TTITLE9=ラビュー・ラビュー
TTITLE10=ジレンマ (How To Play "didgeridoo" Version)
TTITLE11=リビドー
TTITLE12=ロマンチスト・エゴイスト
EXTD=\n\n\n YEAR: 2000
EXTT0=
EXTT1=
EXTT2=
EXTT3=
EXTT4=
EXTT5=
EXTT6=
EXTT7=
EXTT8=
EXTT9=
EXTT10=
EXTT11=
EXTT12=
PLAYORDER=
